<svg width="470" height="360" viewBox="0 0 470 360" fill="none" xmlns="http://www.w3.org/2000/svg">
<g id="PSW-2">
<mask id="mask0" mask-type="alpha" maskUnits="userSpaceOnUse" x="0" y="0" width="470" height="360">
<rect id="Mask" width="470" height="360" fill="white"/>
</mask>
<g mask="url(#mask0)">
<g id="PSW-2_2">
<path id="Stroke 1" d="M143.305 270.238C146.273 273.203 149.381 276.027 152.622 278.698C155.862 281.369 159.232 283.889 162.722 286.245C166.213 288.599 169.823 290.791 173.54 292.809C177.259 294.827 181.086 296.671 185.01 298.33C188.935 299.987 192.957 301.461 197.065 302.737" stroke="#B2B2B2" stroke-width="2" stroke-linecap="round" stroke-linejoin="round"/>
<path id="Stroke 3" d="M120.711 115.072C118.691 118.786 116.846 122.609 115.186 126.531C113.526 130.451 112.052 134.468 110.773 138.573C109.496 142.678 108.414 146.869 107.54 151.135C106.666 155.402 106.001 159.743 105.552 164.149C105.104 168.555 104.875 173.028 104.875 177.551C104.875 182.077 105.104 186.547 105.552 190.954C106.001 195.36 106.666 199.703 107.54 203.969C108.414 208.236 109.496 212.426 110.773 216.53C112.052 220.634 113.526 224.653 115.186 228.574C116.846 232.494 118.691 236.316 120.711 240.031C122.73 243.746 124.925 247.352 127.283 250.839" stroke="#B2B2B2" stroke-width="2" stroke-linecap="round" stroke-linejoin="round"/>
<path id="Stroke 5" d="M356.978 126.53C355.318 122.609 353.473 118.787 351.453 115.071C349.433 111.357 347.239 107.752 344.881 104.265C342.523 100.778 340.002 97.4111 337.328 94.1731C334.655 90.9372 331.828 87.8309 328.859 84.8652C325.892 81.9006 322.783 79.0766 319.542 76.4053C316.302 73.7341 312.932 71.2156 309.442 68.8599C305.952 66.5041 302.341 64.3111 298.624 62.2941C294.905 60.276 291.078 58.4328 287.154 56.7745C283.229 55.1162 279.208 53.6427 275.099 52.3663C270.99 51.0899 266.796 50.0095 262.525 49.136C258.255 48.2637 253.908 47.5973 249.498 47.15C245.086 46.7028 240.611 46.4736 236.082 46.4736C231.554 46.4736 227.077 46.7028 222.667 47.15C218.257 47.5973 213.911 48.2637 209.639 49.136C205.37 50.0095 201.175 51.0899 197.066 52.3663C192.957 53.6427 188.936 55.1162 185.011 56.7745C181.087 58.4328 177.26 60.276 173.541 62.2941C169.823 64.3111 166.214 66.5041 162.723 68.8599" stroke="#B2B2B2" stroke-width="2" stroke-linecap="round" stroke-linejoin="round"/>
<path id="Stroke 7" d="M366.61 190.954C367.058 186.548 367.287 182.077 367.287 177.552C367.287 173.028 367.058 168.556 366.61 164.149" stroke="#B2B2B2" stroke-width="2" stroke-linecap="round" stroke-linejoin="round"/>
<path id="Stroke 9" d="M298.623 292.81C302.341 290.792 305.951 288.6 309.441 286.244C312.931 283.888 316.302 281.37 319.542 278.698C322.782 276.027 325.891 273.203 328.859 270.239C331.827 267.273 334.654 264.167 337.328 260.93C340.002 257.693 342.522 254.325 344.88 250.839C347.238 247.352 349.434 243.746 351.453 240.031C353.473 236.317 355.318 232.493 356.978 228.573" stroke="#B2B2B2" stroke-width="2" stroke-linecap="round" stroke-linejoin="round"/>
<path id="Stroke 11" fill-rule="evenodd" clip-rule="evenodd" d="M331.504 177.552C331.504 124.903 288.782 82.2224 236.082 82.2224C183.381 82.2224 140.658 124.903 140.658 177.552C140.658 230.2 183.381 272.882 236.082 272.882C288.782 272.882 331.504 230.2 331.504 177.552Z" stroke="#231F20" stroke-width="2" stroke-linecap="round" stroke-linejoin="round"/>
<path id="Stroke 13" fill-rule="evenodd" clip-rule="evenodd" d="M325.246 177.552C325.246 128.355 285.326 88.4739 236.081 88.4739C186.837 88.4739 146.916 128.355 146.916 177.552C146.916 226.748 186.837 266.629 236.081 266.629C285.326 266.629 325.246 226.748 325.246 177.552Z" stroke="#B2B2B2" stroke-width="2" stroke-linecap="round" stroke-linejoin="round"/>
<path id="Stroke 15" d="M175.882 53.7391C174.564 53.7391 173.496 52.6719 173.496 51.3557V17.99C173.496 16.6737 174.564 15.6066 175.882 15.6066H228.924C230.243 15.6066 231.31 16.6737 231.31 17.99V39.6068" stroke="#B2B2B2" stroke-width="2" stroke-linecap="round" stroke-linejoin="round"/>
<path id="Stroke 17" fill-rule="evenodd" clip-rule="evenodd" d="M284.122 205.868H188.041V146.944C188.041 144.498 190.026 142.516 192.473 142.516H279.689C282.137 142.516 284.122 144.498 284.122 146.944V205.868Z" stroke="#231F20" stroke-width="2" stroke-linecap="round" stroke-linejoin="round"/>
<path id="Stroke 19" fill-rule="evenodd" clip-rule="evenodd" d="M293.73 205.868H178.434V208.159C178.434 210.605 180.417 212.587 182.866 212.587H289.297C291.745 212.587 293.73 210.605 293.73 208.159V205.868Z" stroke="#231F20" stroke-width="2" stroke-linecap="round" stroke-linejoin="round"/>
<path id="Stroke 21" d="M236.081 163.247V182.74" stroke="black" stroke-width="2" stroke-linecap="round" stroke-linejoin="round"/>
<path id="Fill 23" fill-rule="evenodd" clip-rule="evenodd" d="M237.942 189.998C237.942 191.024 237.108 191.857 236.081 191.857C235.054 191.857 234.221 191.024 234.221 189.998C234.221 188.972 235.054 188.139 236.081 188.139C237.108 188.139 237.942 188.972 237.942 189.998Z" fill="black"/>
<mask id="mask1" mask-type="alpha" maskUnits="userSpaceOnUse" x="39" y="14" width="391" height="332">
<path id="Clip 26" fill-rule="evenodd" clip-rule="evenodd" d="M39.9746 345.487H429.223V14.5H39.9746V345.487Z" fill="white"/>
</mask>
<g mask="url(#mask1)">
<path id="Stroke 25" fill-rule="evenodd" clip-rule="evenodd" d="M231.312 296.714H240.854V272.881H231.312V296.714Z" stroke="#231F20" stroke-width="2" stroke-linecap="round" stroke-linejoin="round"/>
<path id="Stroke 27" d="M222.961 344.38V296.715H249.203V326.506" stroke="#231F20" stroke-width="2" stroke-linecap="round" stroke-linejoin="round"/>
<path id="Stroke 28" fill-rule="evenodd" clip-rule="evenodd" d="M425.898 199.424H411.245C410.022 199.424 409.029 198.432 409.029 197.209V168.272C409.029 167.049 410.022 166.058 411.245 166.058H425.898C427.121 166.058 428.114 167.049 428.114 168.272V197.209C428.114 198.432 427.121 199.424 425.898 199.424Z" stroke="#B2B2B2" stroke-width="2" stroke-linecap="round" stroke-linejoin="round"/>
<path id="Stroke 29" fill-rule="evenodd" clip-rule="evenodd" d="M88.9371 267.206C88.9371 259.308 82.529 252.906 74.6238 252.906C66.7187 252.906 60.3105 259.308 60.3105 267.206C60.3105 275.103 66.7187 281.505 74.6238 281.505C82.529 281.505 88.9371 275.103 88.9371 267.206Z" stroke="#B2B2B2" stroke-width="2" stroke-linecap="round" stroke-linejoin="round"/>
<path id="Stroke 30" fill-rule="evenodd" clip-rule="evenodd" d="M372.76 44.1564C372.76 36.2589 366.352 29.8569 358.447 29.8569C350.541 29.8569 344.133 36.2589 344.133 44.1564C344.133 52.0539 350.541 58.4558 358.447 58.4558C366.352 58.4558 372.76 52.0539 372.76 44.1564Z" stroke="#B2B2B2" stroke-width="2" stroke-linecap="round" stroke-linejoin="round"/>
<path id="Stroke 31" fill-rule="evenodd" clip-rule="evenodd" d="M59.2757 150.165L73.3296 125.848C74.1817 124.372 73.1158 122.527 71.4093 122.527H43.3036C41.5971 122.527 40.5311 124.372 41.3844 125.848L55.4372 150.165C56.2905 151.641 58.4224 151.641 59.2757 150.165Z" stroke="#B2B2B2" stroke-width="2" stroke-linecap="round" stroke-linejoin="round"/>
<path id="Stroke 32" d="M321.318 287.741L325.553 295.069C325.98 295.806 326.767 296.26 327.62 296.26H342.757C343.609 296.26 344.397 295.806 344.823 295.069L352.392 281.973C352.818 281.236 352.818 280.327 352.392 279.59L344.823 266.492C344.397 265.755 343.609 265.3 342.757 265.3" stroke="#B2B2B2" stroke-width="2" stroke-linecap="round" stroke-linejoin="round"/>
<path id="Stroke 33" d="M70.3333 291.85V319.988" stroke="#B2B2B2" stroke-width="2" stroke-linecap="round" stroke-linejoin="round"/>
<path id="Stroke 34" d="M78.9154 291.85V304.931" stroke="#B2B2B2" stroke-width="2" stroke-linecap="round" stroke-linejoin="round"/>
<path id="Stroke 35" d="M383.443 46.4732H390.771" stroke="#B2B2B2" stroke-width="2" stroke-linecap="round" stroke-linejoin="round"/>
<path id="Stroke 36" d="M397.525 46.4732H422.802" stroke="#B2B2B2" stroke-width="2" stroke-linecap="round" stroke-linejoin="round"/>
<path id="Stroke 37" d="M389.406 37.8992H404.915" stroke="#B2B2B2" stroke-width="2" stroke-linecap="round" stroke-linejoin="round"/>
</g>
</g>
</g>
</g>
</svg>
