<svg width="254" height="350" fill="none" xmlns="http://www.w3.org/2000/svg">
<g stroke-width="2" stroke-linecap="round" stroke-linejoin="round">
<path d="M168.954 49.145h50.34c1.153 0 2.097.944 2.097 2.097v247.504a2.097 2.097 0 01-2.097 2.098H34.714a2.09 2.09 0 01-2.097-2.098V51.243c0-1.154.934-2.098 2.098-2.098h50.34" stroke="#000"/>
<path d="M1.15 300.848V43.906c0-14.48 11.739-26.218 26.219-26.218H127M252.849 49.15v256.942c0 14.481-11.737 26.219-26.218 26.219H127" stroke="#B2B2B2"/>
<path d="M168.955 59.632h41.95v199.262l-15.732 15.731-15.731 15.731H43.105V59.632h41.95" stroke="#B2B2B2"/>
<path clip-rule="evenodd" d="M154.267 70.125H99.732a4.194 4.194 0 01-4.195-4.195V42.858a4.195 4.195 0 014.195-4.195h54.535a4.194 4.194 0 014.195 4.195V65.93a4.194 4.194 0 01-4.195 4.195z" stroke="#000"/>
<path d="M179.436 290.361v-31.462h31.462" stroke="#B2B2B2"/>
<path clip-rule="evenodd" d="M168.948 138.293c0-23.169-18.781-41.95-41.949-41.95s-41.95 18.781-41.95 41.95c0 23.167 18.782 41.949 41.95 41.949 23.168 0 41.949-18.782 41.949-41.949z" stroke="#231F20"/>
<path d="M146.639 129.871l-23.567 23.567-15.711-15.712" stroke="#231F20"/>
<path d="M85.049 201.216h83.899M85.049 222.189h83.899M85.049 243.163h83.899M99.732 1.957L127 17.687M127 332.311l27.267 15.731" stroke="#B2B2B2"/>
</g>
</svg>