<svg width="358" height="290" fill="none" xmlns="http://www.w3.org/2000/svg"><g stroke-width="2" stroke-linecap="round" stroke-linejoin="round"><path d="M90.331 30.508c4.081 0 8.066.413 11.914 1.2a58.652 58.652 0 0111.096 3.439 58.97 58.97 0 0110.041 5.44 59.309 59.309 0 018.748 7.207 59.314 59.314 0 017.218 8.735 58.85 58.85 0 015.451 10.024 58.51 58.51 0 013.443 11.079 59.138 59.138 0 011.202 11.893c0 4.074-.414 8.052-1.202 11.894a58.467 58.467 0 01-3.443 11.077 58.852 58.852 0 01-5.451 10.026 59.34 59.34 0 01-7.218 8.733 59.296 59.296 0 01-8.748 7.207 59.126 59.126 0 01-10.041 5.442 58.736 58.736 0 01-11.096 3.438 59.49 59.49 0 01-11.914 1.199c-4.08 0-8.064-.413-11.912-1.199a58.737 58.737 0 01-21.138-8.88 59.373 59.373 0 01-15.967-15.94 58.766 58.766 0 01-8.894-21.103 59.195 59.195 0 01-1.201-11.894c0-4.075.413-8.051 1.2-11.893a58.509 58.509 0 013.446-11.079 58.765 58.765 0 015.449-10.024 59.408 59.408 0 0115.967-15.942M33.105 50.774l24.176-10.187" stroke="#B2B2B2"/><path d="M90.331 80.672V48.213M118.547 112.184L97.238 95.07" stroke="#231F20"/><path clip-rule="evenodd" d="M99.199 89.525c0-4.89-3.97-8.853-8.867-8.853s-8.867 3.964-8.867 8.853c0 4.89 3.97 8.852 8.867 8.852 4.898 0 8.867-3.962 8.867-8.852z" stroke="#B2B2B2"/><path d="M176.377 102.283h108.578M176.377 53.162h108.578M176.377 125.888h130.075M176.377 78.312h130.075M307.439 168.654c29.001-14.541 48.898-44.522 48.898-79.129 0-48.89-39.7-88.525-88.669-88.525H90.331C41.362 1 1.662 40.636 1.662 89.525s39.7 88.525 88.669 88.525v42.126l42.195-42.126h34.107" stroke="#231F20"/><path clip-rule="evenodd" d="M279.476 288.855l-24.566-24.771s-23.138.164-28.818.085c-15.144-.213-32.174 2.187-48.327-18.428-21.782-27.798-9.036-82.259 41.67-82.259h45.268c10.227 0 37.122 4.349 47.54 34.227 8.567 24.569-.715 55.218-32.767 64.294v26.852z" stroke="#B2B2B2"/><path clip-rule="evenodd" d="M281.5 215.56a6.408 6.408 0 01-6.413 6.404c-3.543 0-6.415-2.867-6.415-6.404s2.872-6.404 6.415-6.404a6.408 6.408 0 016.413 6.404zM247.827 215.56c0 3.537-2.872 6.404-6.414 6.404s-6.415-2.867-6.415-6.404 2.873-6.404 6.415-6.404 6.414 2.867 6.414 6.404zM214.155 215.56c0 3.537-2.873 6.404-6.415 6.404s-6.414-2.867-6.414-6.404 2.872-6.404 6.414-6.404 6.415 2.867 6.415 6.404z" stroke="#000"/></g></svg>